<?xml version="1.0" encoding="UTF-8" standalone="no"?>
<svg
   xmlns:dc="http://purl.org/dc/elements/1.1/"
   xmlns:cc="http://creativecommons.org/ns#"
   xmlns:rdf="http://www.w3.org/1999/02/22-rdf-syntax-ns#"
   xmlns:svg="http://www.w3.org/2000/svg"
   xmlns="http://www.w3.org/2000/svg"
   xmlns:sodipodi="http://sodipodi.sourceforge.net/DTD/sodipodi-0.dtd"
   xmlns:inkscape="http://www.inkscape.org/namespaces/inkscape"
   viewBox="0 0 240 240"
   version="1.1"
   id="svg80"
   sodipodi:docname="telegram-blocked.svg"
   inkscape:version="0.92.4 (f8dce91, 2019-08-02)">
  <metadata
     id="metadata84">
    <rdf:RDF>
      <cc:Work
         rdf:about="">
        <dc:format>image/svg+xml</dc:format>
        <dc:type
           rdf:resource="http://purl.org/dc/dcmitype/StillImage" />
      </cc:Work>
    </rdf:RDF>
  </metadata>
  <sodipodi:namedview
     pagecolor="#ffffff"
     bordercolor="#666666"
     borderopacity="1"
     objecttolerance="10"
     gridtolerance="10"
     guidetolerance="10"
     inkscape:pageopacity="0"
     inkscape:pageshadow="2"
     inkscape:window-width="2490"
     inkscape:window-height="1376"
     id="namedview82"
     showgrid="false"
     inkscape:zoom="1.2479167"
     inkscape:cx="94.453612"
     inkscape:cy="9.8843804"
     inkscape:window-x="70"
     inkscape:window-y="1051"
     inkscape:window-maximized="1"
     inkscape:current-layer="svg80" />
  <defs
     id="defs72">
    <linearGradient
       id="A"
       x1="46.136"
       x2="28.836"
       y1="11.536"
       y2="51.9"
       gradientUnits="userSpaceOnUse">
      <stop
         stop-color="#37aee2"
         offset="0"
         id="stop67" />
      <stop
         stop-color="#1e96c8"
         offset="1"
         id="stop69" />
    </linearGradient>
  </defs>
  <g
     transform="matrix(3.3133176,0,0,3.3133176,5.3860486,5.3681453)"
     id="g78">
    <circle
       cy="34.599998"
       cx="34.599998"
       r="34.599998"
       id="circle74"
       style="fill:url(#A)" />
    <path
       d="m 14.4,34.3 23.3,-9.6 c 2.3,-1 10.1,-4.2 10.1,-4.2 0,0 3.6,-1.4 3.3,2 -0.1,1.4 -0.9,6.3 -1.7,11.6 l -2.5,15.7 c 0,0 -0.2,2.3 -1.9,2.7 -1.7,0.4 -4.5,-1.4 -5,-1.8 -0.4,-0.3 -7.5,-4.8 -10.1,-7 -0.7,-0.6 -1.5,-1.8 0.1,-3.2 3.6,-3.3 7.9,-7.4 10.5,-10 1.2,-1.2 2.4,-4 -2.6,-0.6 l -14.1,9.5 c 0,0 -1.6,1 -4.6,0.1 -3,-0.9 -6.5,-2.1 -6.5,-2.1 0,0 -2.4,-1.5 1.7,-3.1 z"
       id="path76"
       inkscape:connector-curvature="0"
       style="fill:#ffffff" />
  </g>
  <circle
     id="path86"
     cx="120.601"
     cy="120.20033"
     r="115.21495"
     style="fill:none;stroke:#ff0000;stroke-width:9.55339909;stroke-miterlimit:4;stroke-dasharray:none" />
  <path
     style="fill:none;stroke:#ff0000;stroke-width:9.55339909;stroke-linecap:butt;stroke-linejoin:miter;stroke-miterlimit:4;stroke-dasharray:none;stroke-opacity:1"
     d="M 39.835702,203.26227 196.00746,34.841747"
     id="path4596"
     inkscape:connector-curvature="0" />
</svg>
