<?xml version="1.0" encoding="UTF-8" standalone="no"?>
<svg
   xmlns:dc="http://purl.org/dc/elements/1.1/"
   xmlns:cc="http://creativecommons.org/ns#"
   xmlns:rdf="http://www.w3.org/1999/02/22-rdf-syntax-ns#"
   xmlns:svg="http://www.w3.org/2000/svg"
   xmlns="http://www.w3.org/2000/svg"
   xmlns:sodipodi="http://sodipodi.sourceforge.net/DTD/sodipodi-0.dtd"
   xmlns:inkscape="http://www.inkscape.org/namespaces/inkscape"
   viewBox="0 0 179.19001 191.49"
   version="1.1"
   id="svg1111"
   sodipodi:docname="logo.svg"
   width="179.19"
   height="191.49001"
   inkscape:version="0.92.4 (fd57863, 2020-04-02)">
  <metadata
     id="metadata1115">
    <rdf:RDF>
      <cc:Work
         rdf:about="">
        <dc:format>image/svg+xml</dc:format>
        <dc:type
           rdf:resource="http://purl.org/dc/dcmitype/StillImage" />
        <dc:title>AN_logo_c_rus1</dc:title>
      </cc:Work>
    </rdf:RDF>
  </metadata>
  <sodipodi:namedview
     pagecolor="#ffffff"
     bordercolor="#666666"
     borderopacity="1"
     objecttolerance="10"
     gridtolerance="10"
     guidetolerance="10"
     inkscape:pageopacity="0"
     inkscape:pageshadow="2"
     inkscape:window-width="2560"
     inkscape:window-height="1365"
     id="namedview1113"
     showgrid="false"
     inkscape:zoom="2.2425893"
     inkscape:cx="251.49263"
     inkscape:cy="82.957309"
     inkscape:window-x="0"
     inkscape:window-y="1024"
     inkscape:window-maximized="1"
     inkscape:current-layer="svg1111" />
  <defs
     id="defs987">
    <style
       id="style985">.cls-1{fill:#0082b3;}.cls-2{fill:#fff;}</style>
  </defs>
  <title
     id="title989">AN_logo_c_rus1</title>
  <path
     class="cls-1"
     d="m 33.47,147 17.75,-17.75 a 59.18,59.18 0 1 1 76.75,0 L 145.72,147 a 84.23,84.23 0 1 0 -112.25,0 z"
     id="path991"
     inkscape:connector-curvature="0"
     style="fill:#0082b3" />
  <path
     class="cls-1"
     d="m 89.6,54.2 c -38.94,-43.5 -78,-37.15 -78,-37.15 42.5,23.25 78,77.32 78,77.32 0,0 35.52,-54.07 78,-77.32 0.02,0 -39.07,-6.35 -78,37.15 z"
     id="path993"
     inkscape:connector-curvature="0"
     style="fill:#0082b3" />
  <path
     class="cls-1"
     d="m 62.57,90.06 a 0.82,0.82 0 0 0 0.82,-0.8 v 0 -3 l 3,1.74 a 0.8,0.8 0 0 0 0.43,0.09 0.76,0.76 0 0 0 0.69,-0.39 0.81,0.81 0 0 0 -0.28,-1.11 v 0 l -2.94,-1.71 2.49,-1.48 a 0.81,0.81 0 0 0 0.3,-1.11 v 0 A 0.78,0.78 0 0 0 66,81.93 h -0.08 l -3.32,2 -5.29,-3.03 5.28,-3 3.32,2 a 0.67,0.67 0 0 0 0.39,0.12 0.91,0.91 0 0 0 0.72,-0.39 0.82,0.82 0 0 0 -0.27,-1.12 v 0 L 64.24,77 l 3,-1.71 a 0.84,0.84 0 0 0 0.42,-1.1 l -0.09,-0.15 a 0.82,0.82 0 0 0 -1.11,-0.31 v 0 l -3,1.72 v -3 a 0.82,0.82 0 1 0 -1.64,0 v 3.95 l -5.25,3 V 73.29 L 59.88,71.4 A 0.83,0.83 0 0 0 60.21,70.28 0.8,0.8 0 0 0 59.06,70 v 0 l -2.55,1.4 v -3.34 a 0.83,0.83 0 0 0 -0.83,-0.83 v 0 a 0.82,0.82 0 0 0 -0.77,0.83 v 3.4 L 52.3,70 a 0.77,0.77 0 0 0 -1.06,0.25 v 0 a 0.8,0.8 0 0 0 0.27,1.1 v 0 l 3.39,1.9 v 6.11 l -5.37,-3.1 V 72.5 a 0.79,0.79 0 0 0 -0.75,-0.83 v 0 a 0.83,0.83 0 0 0 -0.81,0.83 v 2.88 L 45,73.72 a 0.82,0.82 0 0 0 -1.11,0.31 v 0 a 0.82,0.82 0 0 0 0.29,1.12 v 0 l 2.92,1.69 -2.6,1.48 a 0.78,0.78 0 0 0 -0.32,1.07 0.21,0.21 0 0 0 0,0.06 0.77,0.77 0 0 0 0.7,0.39 1.06,1.06 0 0 0 0.43,-0.12 l 3.33,-2 L 54,80.79 48.71,84 45.38,82 a 0.81,0.81 0 0 0 -1.12,0.25 v 0 a 0.84,0.84 0 0 0 0.28,1.13 l 2.55,1.51 -2.92,1.7 a 0.82,0.82 0 0 0 -0.31,1.12 v 0 a 0.77,0.77 0 0 0 0.7,0.42 A 1.48,1.48 0 0 0 45,88 l 2.94,-1.64 v 2.88 a 0.81,0.81 0 0 0 0.81,0.81 v 0 a 0.82,0.82 0 0 0 0.8,-0.82 v -3.85 l 5.39,-3.07 v 6.08 l -3.42,1.91 a 0.81,0.81 0 0 0 -0.33,1.1 v 0 a 0.74,0.74 0 0 0 0.69,0.42 0.93,0.93 0 0 0 0.4,-0.09 l 2.61,-1.48 v 3.45 a 0.81,0.81 0 0 0 0.8,0.82 v 0 a 0.83,0.83 0 0 0 0.83,-0.81 v 0 -3.4 l 2.52,1.43 a 0.86,0.86 0 0 0 0.39,0.09 0.78,0.78 0 0 0 0.73,-0.42 0.84,0.84 0 0 0 -0.33,-1.13 v 0 l -3.31,-1.85 v -6.15 l 5.25,3 v 3.89 a 0.83,0.83 0 0 0 0.8,0.89 z"
     id="path995"
     inkscape:connector-curvature="0"
     style="fill:#0082b3" />
  <path
     class="cls-1"
     d="m 129.49,85.32 v 3.89 a 0.81,0.81 0 0 0 0.72,0.9 0.82,0.82 0 0 0 0.91,-0.72 v -3.18 l 3,1.74 a 0.89,0.89 0 0 0 1.13,-0.3 0.81,0.81 0 0 0 -0.29,-1.11 v 0 l -3,-1.71 2.49,-1.48 a 0.81,0.81 0 0 0 0.31,-1.1 v 0 a 0.79,0.79 0 0 0 -1.08,-0.29 v 0 l -3.33,2 -5.35,-3.1 5.28,-3 3.33,2 A 0.64,0.64 0 0 0 134,80 a 0.93,0.93 0 0 0 0.73,-0.39 0.82,0.82 0 0 0 -0.29,-1.12 v 0 L 132,77 l 3,-1.71 a 0.83,0.83 0 0 0 0.29,-1.13 0.82,0.82 0 0 0 -1.12,-0.29 l -3,1.72 v -3 a 0.83,0.83 0 0 0 -0.73,-0.91 0.82,0.82 0 0 0 -0.9,0.73 0.54,0.54 0 0 0 0,0.18 v 3.92 l -5.25,3 v -6.2 l 3.3,-1.89 a 0.81,0.81 0 0 0 0.33,-1.11 v 0 A 0.78,0.78 0 0 0 126.8,70 l -2.52,1.42 v -3.36 a 0.83,0.83 0 0 0 -0.83,-0.83 v 0 a 0.82,0.82 0 0 0 -0.82,0.82 v 0 3.4 L 120,70 a 0.79,0.79 0 0 0 -1.08,0.25 c 0,0 0,0 0,0 a 0.81,0.81 0 0 0 0.29,1.11 v 0 l 3.4,1.92 v 6.11 l -5.37,-3.1 v -3.77 a 0.81,0.81 0 0 0 -0.77,-0.83 v 0 a 0.85,0.85 0 0 0 -0.82,0.83 v 2.88 l -2.89,-1.66 a 0.8,0.8 0 0 0 -1.11,0.29 v 0 a 0.81,0.81 0 0 0 0.28,1.12 v 0 l 2.93,1.69 -2.56,1.53 a 0.8,0.8 0 0 0 -0.31,1.09 v 0 a 0.77,0.77 0 0 0 0.7,0.39 0.93,0.93 0 0 0 0.43,-0.12 l 3.34,-2 5.35,3.07 -5.36,3.2 -3.34,-2 a 0.82,0.82 0 0 0 -1.13,0.27 v 0 a 0.84,0.84 0 0 0 0.28,1.13 l 2.56,1.51 -2.91,1.72 a 0.81,0.81 0 0 0 -0.31,1.1 v 0 a 0.74,0.74 0 0 0 0.69,0.42 1.66,1.66 0 0 0 0.42,-0.12 l 2.89,-1.66 v 2.88 a 0.83,0.83 0 0 0 0.82,0.81 v 0 a 0.82,0.82 0 0 0 0.8,-0.82 v -3.86 l 5.37,-3.07 v 6.08 l -3.4,1.91 a 0.81,0.81 0 0 0 -0.32,1.11 v 0 a 0.77,0.77 0 0 0 0.7,0.42 0.93,0.93 0 0 0 0.4,-0.09 l 2.61,-1.48 v 3.45 a 0.81,0.81 0 0 0 0.8,0.82 v 0 a 0.83,0.83 0 0 0 0.83,-0.81 v 0 -3.4 l 2.52,1.43 a 0.79,0.79 0 0 0 0.38,0.09 0.78,0.78 0 0 0 0.73,-0.42 0.83,0.83 0 0 0 -0.31,-1.12 v 0 l -3.3,-1.85 v -6.17 z"
     id="path997"
     inkscape:connector-curvature="0"
     style="fill:#0082b3" />
  <path
     class="cls-1"
     d="m 176.51,148.06 h -69.25 c -8.1,1.7 -13.31,7.76 -15.83,11.48 l 12.24,12.25 -14.23,14.27 -13.63,-13.64 12.37,-12.36 c -2.38,-3.65 -7.69,-10.2 -16.17,-12 H 2.76 v 23.76 H 0 v 5.24 h 70 a 20.52,20.52 0 0 0 39.19,0 h 70 v -5.22 h -2.76 z"
     id="path999"
     inkscape:connector-curvature="0"
     style="fill:#0082b3" />
  <polygon
     class="cls-1"
     points="89.85,160 89.85,171.92 101.76,171.92 "
     id="polygon1001"
     style="fill:#0082b3" />
  <polygon
     class="cls-1"
     points="89.44,184.21 89.44,172.32 77.56,172.32 "
     id="polygon1003"
     style="fill:#0082b3" />
  <path
     class="cls-2"
     d="m 31,112.15 3.21,5.3 -0.35,0.21 c -0.63,-1 -1.16,-1.32 -1.6,-1 a 1.2,1.2 0 0 0 -0.29,0.26 l -1.4,1.91 2.3,3.81 1.84,-0.32 a 1.7,1.7 0 0 0 0.64,-0.23 c 0.53,-0.32 0.55,-0.92 0.06,-1.81 l 0.35,-0.21 2,3.33 -0.35,0.21 A 1.67,1.67 0 0 0 35.6,123.02 L 23.21,124.9 22.9,124.38 30.58,114 a 1.29,1.29 0 0 0 0.08,-1.55 v -0.06 z m -0.92,7.3 -3.08,4.18 5.07,-0.9 z"
     id="path1005"
     inkscape:connector-curvature="0"
     style="fill:#ffffff" />
  <path
     class="cls-2"
     d="m 25.79,96.5 1.94,6.3 -0.39,0.12 c -0.32,-0.91 -0.66,-1.31 -1,-1.2 a 0.45,0.45 0 0 0 -0.25,0.18 l -3.56,5 0.67,0.34 3.45,-1.07 a 1.47,1.47 0 0 0 1.19,-1.7 1.67,1.67 0 0 0 -0.08,-0.3 l 0.39,-0.12 1.85,6 -0.39,0.12 a 1.48,1.48 0 0 0 -1.77,-1.1 1.33,1.33 0 0 0 -0.28,0.1 l -8.71,2.69 a 1.49,1.49 0 0 0 -1.19,1.74 1.12,1.12 0 0 0 0.08,0.26 l -0.39,0.12 -1.85,-6 0.39,-0.12 a 1.48,1.48 0 0 0 1.8,1.08 l 0.25,-0.08 4.18,-1.29 -5.69,-3 a 0.81,0.81 0 0 0 -0.69,-0.11 c -0.49,0.15 -0.61,0.7 -0.36,1.66 l -0.39,0.12 -1.65,-5.35 0.39,-0.12 a 4.16,4.16 0 0 0 0.72,1.48 7.06,7.06 0 0 0 2.17,1.57 l 3.24,1.67 5,-7.27 c 0.18,-0.26 0.34,-0.52 0.5,-0.79 a 1.33,1.33 0 0 0 0.09,-0.9 z"
     id="path1007"
     inkscape:connector-curvature="0"
     style="fill:#ffffff" />
  <path
     class="cls-2"
     d="m 24.81,81.42 0.33,6.19 h -0.4 c -0.1,-1.15 -0.41,-1.71 -0.91,-1.68 a 0.8,0.8 0 0 0 -0.38,0.1 L 21.3,87 l 0.24,4.45 1.78,0.59 a 1.87,1.87 0 0 0 0.67,0.09 c 0.62,0 0.92,-0.55 0.91,-1.57 h 0.4 l 0.21,3.89 H 25.1 C 25.05,93.82 24.61,93.37 23.79,93.08 L 12,89.06 v -0.61 l 11.64,-5.6 a 1.3,1.3 0 0 0 0.8,-1.33 v -0.08 z m -4.25,6 -4.65,2.24 4.89,1.6 z"
     id="path1009"
     inkscape:connector-curvature="0"
     style="fill:#ffffff" />
  <path
     class="cls-2"
     d="m 14.56,64.66 a 1.49,1.49 0 0 0 1,1.82 1.57,1.57 0 0 0 0.3,0 l 8.52,1.53 a 3.35,3.35 0 0 0 1.34,0.06 c 0.34,-0.11 0.57,-0.46 0.67,-1 V 67 l 0.28,0.06 1.85,0.28 1.74,0.2 -0.1,0.57 a 6.1,6.1 0 0 0 -1.85,0.28 3.21,3.21 0 0 0 -1.93,2.63 l -0.64,3.57 a 4.17,4.17 0 0 0 0.57,3.53 5.62,5.62 0 0 0 1.83,1.25 l -0.09,0.5 -3.77,-0.85 A 2.31,2.31 0 0 0 22.7,76.36 31.2,31.2 0 0 0 15.26,74.16 4,4 0 0 0 13.44,74.1 c -0.42,0.17 -0.72,0.67 -0.88,1.49 l -0.42,-0.07 2,-11 z m 9.64,6.5 -9.13,-1.64 a 0.88,0.88 0 0 0 -0.64,0.06 c -0.24,0.15 -0.45,0.68 -0.61,1.58 -0.16,0.9 0,1.49 0.4,1.75 a 8.61,8.61 0 0 0 2.18,0.67 c 3.79,0.84 6.52,1.83 8.17,3 l 0.76,-4.24 c 0.09,-0.52 0,-0.84 -0.4,-1 A 4.86,4.86 0 0 0 24.2,71.16 Z"
     id="path1011"
     inkscape:connector-curvature="0"
     style="fill:#ffffff" />
  <path
     class="cls-2"
     d="m 28.83,52.17 3.35,2.36 -4.34,10.23 -0.38,-0.16 a 1.46,1.46 0 0 0 -0.57,-2 1.27,1.27 0 0 0 -0.32,-0.13 l -8.39,-3.56 a 1.5,1.5 0 0 0 -2,0.58 1.12,1.12 0 0 0 -0.11,0.25 l -0.37,-0.16 4.25,-10.11 3.74,1.58 -0.15,0.36 -0.32,-0.05 c -2,-0.42 -3.35,0.21 -4.1,1.87 l -0.71,1.58 c -0.18,0.39 -0.13,0.67 0.13,0.85 a 6,6 0 0 0 0.62,0.31 l 4.1,1.73 a 8.71,8.71 0 0 0 0.37,-1.23 2,2 0 0 0 -0.14,-1.26 6.88,6.88 0 0 0 -1.65,-1.58 l 0.16,-0.38 6,2.52 -0.16,0.39 a 6.54,6.54 0 0 0 -2.33,-0.11 c -0.51,0.13 -1.06,0.76 -1.63,1.9 l 4.07,1.73 A 1.74,1.74 0 0 0 29,59.9 c 0.27,-0.08 0.59,-0.54 0.94,-1.37 a 4.76,4.76 0 0 0 0.29,-3.34 8.26,8.26 0 0 0 -1.55,-2.54 z"
     id="path1013"
     inkscape:connector-curvature="0"
     style="fill:#ffffff" />
  <path
     class="cls-2"
     d="m 44,38 -3.9,5 -0.32,-0.25 a 1.48,1.48 0 0 0 -0.05,-2.07 1.89,1.89 0 0 0 -0.27,-0.2 L 32,34.64 l 6.07,11 -0.29,0.37 -12.08,-3.44 7.51,5.86 a 1.45,1.45 0 0 0 2.06,0 2.2,2.2 0 0 0 0.2,-0.23 l 0.32,0.25 -2.38,3.05 -0.32,-0.25 A 1.45,1.45 0 0 0 33,49.22 l -0.22,-0.16 -7.16,-5.58 a 1.86,1.86 0 0 0 -1.27,-0.54 2.18,2.18 0 0 0 -1.13,0.87 l -0.27,-0.28 3,-3.87 9.4,2.65 -4.73,-8.64 3,-3.82 0.32,0.25 a 1.48,1.48 0 0 0 0.1,2.1 1.18,1.18 0 0 0 0.22,0.17 L 41.41,38 a 1.47,1.47 0 0 0 2.08,0 2.43,2.43 0 0 0 0.2,-0.25 z"
     id="path1015"
     inkscape:connector-curvature="0"
     style="fill:#ffffff" />
  <path
     class="cls-2"
     d="m 57.36,28.06 -5.07,3.7 -0.24,-0.33 a 1.49,1.49 0 0 0 0.51,-2 2.35,2.35 0 0 0 -0.19,-0.25 l -4.7,-6.44 1,9.77 a 1.45,1.45 0 0 0 1.93,0 l 0.24,0.33 -5.08,3.7 -0.24,-0.33 a 1.49,1.49 0 0 0 0.51,-2 2.35,2.35 0 0 0 -0.19,-0.25 l -5.37,-7.37 a 1.49,1.49 0 0 0 -2,-0.56 1,1 0 0 0 -0.24,0.17 l -0.3,-0.3 5.07,-3.74 0.24,0.33 a 1.49,1.49 0 0 0 -0.48,2.05 1.84,1.84 0 0 0 0.17,0.22 l 4.75,6.52 -1,-9.82 a 1.48,1.48 0 0 0 -2,0 l -0.16,-0.4 5.07,-3.69 0.24,0.33 a 1.47,1.47 0 0 0 -0.49,2 1.08,1.08 0 0 0 0.18,0.24 l 5.41,7.39 a 1.48,1.48 0 0 0 2,0.57 1.51,1.51 0 0 0 0.26,-0.18 z"
     id="path1017"
     inkscape:connector-curvature="0"
     style="fill:#ffffff" />
  <path
     class="cls-2"
     d="m 71.38,22.19 -5.81,2.35 -0.15,-0.38 a 1.47,1.47 0 0 0 1,-1.85 1.3,1.3 0 0 0 -0.1,-0.25 l -1.54,-3.8 -0.45,0.19 -1.37,7.17 -3.58,1.44 -0.15,-0.38 h 0.11 c 0.23,-0.09 0.41,-0.42 0.53,-1 l 1.4,-6.39 a 3.9,3.9 0 0 1 -2.39,-0.12 2.82,2.82 0 0 1 -1.68,-1.63 3,3 0 0 1 0.51,-3.3 7.12,7.12 0 0 1 3,-2 l 5.75,-2.32 0.16,0.38 a 1.48,1.48 0 0 0 -1,1.87 0.85,0.85 0 0 0 0.11,0.26 l 3.42,8.45 a 1.47,1.47 0 0 0 1.79,1.05 1.66,1.66 0 0 0 0.31,-0.12 z M 64.5,17.65 62.63,13.06 c -0.21,-0.52 -0.7,-0.62 -1.45,-0.32 a 2.09,2.09 0 0 0 -1.47,1.92 4.09,4.09 0 0 0 0.39,1.68 2.89,2.89 0 0 0 1.61,1.87 4,4 0 0 0 2.46,-0.39 z"
     id="path1019"
     inkscape:connector-curvature="0"
     style="fill:#ffffff" />
  <path
     class="cls-2"
     d="m 91.55,13.57 -0.27,4.27 a 1.45,1.45 0 0 0 1.16,1.72 1.84,1.84 0 0 0 0.33,0 V 20 L 86.51,19.61 V 19.2 a 1.46,1.46 0 0 0 1.67,-1.2 1.3,1.3 0 0 0 0,-0.34 l 0.57,-9.1 a 1.49,1.49 0 0 0 -1.2,-1.72 1.46,1.46 0 0 0 -0.29,0 V 6.4 l 6.27,0.39 v 0.4 a 1.49,1.49 0 0 0 -1.68,1.27 1.31,1.31 0 0 0 0,0.28 l -0.24,3.89 4.65,0.28 0.23,-3.85 A 1.48,1.48 0 0 0 95.33,7.32 1.84,1.84 0 0 0 95,7.32 V 6.88 l 6.27,0.39 v 0.41 a 1.49,1.49 0 0 0 -1.69,1.26 1.31,1.31 0 0 0 0,0.28 L 99,18.32 a 1.46,1.46 0 0 0 1.19,1.68 1.66,1.66 0 0 0 0.32,0 v 0.41 L 94.21,20 v -0.41 a 1.46,1.46 0 0 0 1.68,-1.2 1.72,1.72 0 0 0 0,-0.32 l 0.27,-4.27 z"
     id="path1021"
     inkscape:connector-curvature="0"
     style="fill:#ffffff" />
  <path
     class="cls-2"
     d="m 115.14,24.85 -5.91,-1.85 0.12,-0.38 c 1.11,0.3 1.74,0.22 1.89,-0.27 a 0.86,0.86 0 0 0 0,-0.39 l -0.24,-2.37 -4.25,-1.34 -1.17,1.46 a 1.77,1.77 0 0 0 -0.33,0.6 c -0.18,0.59 0.2,1.05 1.15,1.39 l -0.12,0.39 -3.71,-1.16 0.13,-0.39 a 1.64,1.64 0 0 0 1.74,-0.76 l 8,-9.62 0.58,0.18 1.12,12.88 a 1.27,1.27 0 0 0 1,1.22 h 0.07 z m -4.14,-6.08 -0.46,-5.17 -3.21,4 z"
     id="path1023"
     inkscape:connector-curvature="0"
     style="fill:#ffffff" />
  <path
     class="cls-2"
     d="m 135.79,22.06 a 1.89,1.89 0 0 0 -0.6,-0.22 3.6,3.6 0 0 0 -2,0.71 l -7.71,4.51 a 11.21,11.21 0 0 1 -3,1.39 2.66,2.66 0 0 1 -1.93,-0.35 2.63,2.63 0 0 1 -1.13,-1.35 1.88,1.88 0 0 1 0.15,-1.71 1.51,1.51 0 0 1 0.91,-0.73 1.33,1.33 0 0 1 1.11,0.18 1.31,1.31 0 0 1 0.61,0.77 1.18,1.18 0 0 1 -0.16,1 1.88,1.88 0 0 1 -0.35,0.39 1.5,1.5 0 0 0 -0.35,0.36 0.34,0.34 0 0 0 0.08,0.49 h 0.08 c 0.57,0.35 1.67,0 3.28,-1 l 0.17,-0.1 -0.21,-10.12 a 2,2 0 0 0 -1.11,-1.66 l 0.23,-0.37 5.84,3.55 -0.22,0.36 -0.3,-0.18 c -0.61,-0.37 -1,-0.39 -1.22,-0.05 a 3.64,3.64 0 0 0 -0.19,1.64 v 5.13 l 4.12,-2.5 a 3.15,3.15 0 0 0 1,-0.89 0.72,0.72 0 0 0 -0.06,-0.87 4,4 0 0 0 -0.75,-0.62 l 0.22,-0.36 3.7,2.22 z"
     id="path1025"
     inkscape:connector-curvature="0"
     style="fill:#ffffff" />
  <path
     class="cls-2"
     d="M 140.64,44.39 136,39.68 136.29,39.4 c 0.7,0.66 1.19,0.85 1.46,0.59 a 0.57,0.57 0 0 0 0.13,-0.27 l 0.86,-6.12 H 138 l -2.59,2.53 a 1.47,1.47 0 0 0 -0.29,2.06 1,1 0 0 0 0.23,0.24 l -0.29,0.28 -4.39,-4.48 0.29,-0.29 a 1.46,1.46 0 0 0 2.05,0.24 1.36,1.36 0 0 0 0.24,-0.24 l 6.51,-6.38 a 1.49,1.49 0 0 0 0.27,-2.08 2,2 0 0 0 -0.2,-0.21 l 0.29,-0.28 4.39,4.48 -0.29,0.29 a 1.49,1.49 0 0 0 -2.09,-0.21 1.34,1.34 0 0 0 -0.2,0.21 l -3.13,3.06 h 6.42 a 0.94,0.94 0 0 0 0.66,-0.21 c 0.37,-0.36 0.22,-0.91 -0.44,-1.65 l 0.29,-0.28 3.92,4 -0.29,0.28 a 4.16,4.16 0 0 0 -1.32,-1 7,7 0 0 0 -2.65,-0.4 h -3.64 l -1.08,8.73 a 5.84,5.84 0 0 0 -0.08,0.93 1.29,1.29 0 0 0 0.33,0.85 z"
     id="path1027"
     inkscape:connector-curvature="0"
     style="fill:#ffffff" />
  <path
     class="cls-2"
     d="m 161.06,64.45 a 3.12,3.12 0 0 1 -3.12,-0.46 5.91,5.91 0 0 1 -1.84,-2.74 l -0.57,-1.57 -3.62,1.38 a 1.45,1.45 0 0 0 -1.08,1.76 1.13,1.13 0 0 0 0.08,0.24 l -0.39,0.14 -2.14,-5.9 0.38,-0.14 a 1.47,1.47 0 0 0 1.79,1.05 1.66,1.66 0 0 0 0.31,-0.12 L 159.43,55 a 1.5,1.5 0 0 0 1.09,-1.81 l -0.09,-0.25 0.38,-0.14 2.1,5.84 q 1.64,4.54 -1.85,5.81 z m -1,-2.87 a 4.15,4.15 0 0 0 1.73,-1.09 1.75,1.75 0 0 0 0.41,-1.88 l -0.12,-0.31 c -0.21,-0.58 -0.57,-0.78 -1.1,-0.59 l -4.86,1.76 a 5.8,5.8 0 0 0 1,1.8 c 0.65,0.68 1.62,0.79 2.93,0.31 z"
     id="path1029"
     inkscape:connector-curvature="0"
     style="fill:#ffffff" />
  <path
     class="cls-2"
     d="m 156.7,81.83 a 9.06,9.06 0 0 1 -1.79,-1.27 5.43,5.43 0 0 1 -1.12,-1.72 7.32,7.32 0 0 1 -0.49,-2 6.6,6.6 0 0 1 1.3,-5.13 7.29,7.29 0 0 1 9.75,-1.27 6.4,6.4 0 0 1 2.56,4.62 8.57,8.57 0 0 1 -0.16,2.72 4.82,4.82 0 0 0 -0.16,1.25 0.7,0.7 0 0 0 0.33,0.5 l 0.57,0.27 0.06,0.42 -4.44,0.57 -0.06,-0.48 0.57,-0.33 a 6.62,6.62 0 0 0 2.08,-2 4.18,4.18 0 0 0 0.71,-2.85 c -0.16,-1.32 -1.06,-2.18 -2.69,-2.57 a 11.26,11.26 0 0 0 -4.05,-0.1 c -4,0.51 -5.85,2 -5.55,4.43 a 5.35,5.35 0 0 0 1.11,2.72 8.25,8.25 0 0 0 1.91,1.62 z"
     id="path1031"
     inkscape:connector-curvature="0"
     style="fill:#ffffff" />
  <path
     class="cls-2"
     d="m 161.63,101.81 a 9.44,9.44 0 0 1 2.74,4.76 l -0.52,-0.13 a 6,6 0 0 0 -1.6,-2.55 14.83,14.83 0 0 0 -5.29,-2.16 14.65,14.65 0 0 0 -5.69,-0.67 5.67,5.67 0 0 0 -2.62,1.45 l -0.53,-0.14 a 9.1,9.1 0 0 1 3.53,-2.46 9.68,9.68 0 0 1 10,1.9 z"
     id="path1033"
     inkscape:connector-curvature="0"
     style="fill:#ffffff" />
  <path
     class="cls-2"
     d="m 145.38,117.38 2.63,-5.7 0.37,0.17 a 1.47,1.47 0 0 0 0.53,2 1.36,1.36 0 0 0 0.3,0.13 l 3.72,1.72 0.21,-0.45 -3.92,-6.2 1.61,-3.48 0.37,0.17 v 0.1 c -0.1,0.23 0,0.59 0.28,1.08 l 3.35,5.61 a 4,4 0 0 1 1.82,-1.55 2.81,2.81 0 0 1 2.34,0 3,3 0 0 1 1.89,2.75 7.44,7.44 0 0 1 -0.82,3.46 l -2.62,5.68 -0.37,-0.17 a 1.49,1.49 0 0 0 -0.58,-2 l -0.25,-0.11 -8.33,-3.78 a 1.47,1.47 0 0 0 -2,0.45 1.23,1.23 0 0 0 -0.14,0.31 z m 8.12,-1.4 4.52,2.09 c 0.51,0.23 0.94,0 1.28,-0.76 a 2.1,2.1 0 0 0 -0.24,-2.4 4.34,4.34 0 0 0 -1.44,-1 2.93,2.93 0 0 0 -2.45,-0.25 3.81,3.81 0 0 0 -1.53,2 z"
     id="path1035"
     inkscape:connector-curvature="0"
     style="fill:#ffffff" />
  <path
     class="cls-2"
     d="m 142.53,123.56 a 10.09,10.09 0 0 1 -1.26,-3.21 6.61,6.61 0 0 1 -0.15,-1.88 4,4 0 0 1 0.09,-1.09 l 0.44,0.32 a 5.68,5.68 0 0 0 0.62,3 21,21 0 0 0 9.25,6.5 6,6 0 0 0 3,-0.42 l 0.44,0.31 a 9.54,9.54 0 0 1 -5.27,1 9.88,9.88 0 0 1 -4.64,-1.82 10.32,10.32 0 0 1 -2.52,-2.71 z"
     id="path1037"
     inkscape:connector-curvature="0"
     style="fill:#ffffff" />
</svg>
